<svg data-v-423bf9ae="" xmlns="http://www.w3.org/2000/svg" viewBox="0 0 401.02043938309333 60" class="font"><!----><!----><!----><g data-v-423bf9ae="" id="5f7ae715-02c3-4cdc-be4b-ad6c86f6f952" fill="white" transform="matrix(6.122449456230433,0,0,6.122449456230433,1.7755074354806766,-11.816328097660907)"><path d="M-0.29 3.57L-0.29 1.93L5.46 1.93L5.46 3.57L3.55 3.57L3.55 10.34L4.42 10.34L4.42 10.54L3.55 10.54L3.55 11.29L3.04 11.29L3.04 11.55L3.40 11.55L3.40 11.73L1.66 11.73L1.66 11.73Q1.63 11.73 1.63 11.70L1.63 11.70L1.63 3.57L-0.29 3.57ZM3.54 10.34L2.88 10.34L2.88 10.54L3.54 10.54L3.54 10.34ZM6.43 7.57L8.11 1.96L9.76 1.96L9.76 1.96Q9.80 2.10 11.36 7.29L11.36 7.29L11.66 7.29L11.66 10.51L10.99 10.51L10.99 10.76L11.66 10.76L11.66 11.45L9.84 11.45L9.84 9.47L7.62 9.47L7.62 10.32L6.71 10.32L6.71 11.73L5.07 11.73L5.07 11.63L5.20 11.63L5.20 10.32L5.87 10.32L5.87 7.57L6.43 7.57ZM8.92 4.71L8.89 4.71L8.89 4.72L8.89 4.72Q8.67 5.89 8.07 8.40L8.07 8.40L9.60 8.40L9.60 7.29L9.47 7.29L9.47 7.29Q8.92 4.92 8.92 4.71L8.92 4.71ZM4.59 7.57L4.59 7.28L5.87 7.28L5.87 7.57L4.59 7.57ZM9.84 11.73L9.84 11.57L12.04 11.57L12.04 11.73L9.84 11.73ZM11.47 3.57L11.47 1.93L17.21 1.93L17.21 3.57L15.31 3.57L15.31 10.34L16.17 10.34L16.17 10.54L15.31 10.54L15.31 11.29L14.80 11.29L14.80 11.55L15.16 11.55L15.16 11.73L13.42 11.73L13.42 11.73Q13.38 11.73 13.38 11.70L13.38 11.70L13.38 3.57L11.47 3.57ZM15.30 10.34L14.64 10.34L14.64 10.54L15.30 10.54L15.30 10.34ZM17.35 1.93L17.35 1.93L19.20 1.93L19.20 1.93Q19.22 1.94 19.22 1.97L19.22 1.97L19.22 6.73L19.22 6.73Q19.22 6.76 19.20 6.76L19.20 6.76L18.98 6.76L18.98 11.70L18.98 11.70Q18.98 11.73 18.94 11.73L18.94 11.73L17.35 11.73L17.35 11.73Q17.32 11.73 17.32 11.70L17.32 11.70L17.32 6.64L16.82 6.64L16.82 6.64Q16.79 6.64 16.79 6.61L16.79 6.61L16.79 6.40L16.79 6.40Q16.80 6.36 16.82 6.36L16.82 6.36L17.32 6.36L17.32 1.97L17.32 1.97Q17.32 1.93 17.35 1.93ZM18.27 6.36L17.33 6.36L17.33 6.64L18.27 6.64L18.27 6.36ZM23.34 1.93L23.34 1.93L23.34 1.93Q25.39 1.93 25.92 3.22L25.92 3.22L25.92 3.22Q26.07 3.53 26.07 3.63L26.07 3.63L25.21 3.63L25.21 3.89L26.14 3.89L26.14 3.88L26.14 3.88Q26.14 3.81 26.07 3.63L26.07 3.63L27.65 3.63L27.65 3.89L26.15 3.89L26.15 3.91L26.15 3.91Q26.27 4.46 26.32 5.09L26.32 5.09L26.32 5.09Q26.32 5.13 24.52 5.22L24.52 5.22L24.52 5.21L24.52 5.21Q24.52 3.58 23.41 3.58L23.41 3.58L23.20 3.58L23.20 3.58Q22.37 3.58 22.18 4.29L22.18 4.29L22.18 4.29Q22.04 4.89 22.04 5.87L22.04 5.87L22.04 7.21L22.02 7.40L21.39 7.40L21.39 7.71L22.02 7.71L22.02 10.08L24.65 10.08L24.65 7.62L26.17 7.62L26.17 10.08L25.33 10.08L25.33 11.60L23.57 11.60L23.57 11.73L22.20 11.73L22.20 11.60L20.82 11.60L20.82 10.84L21.74 10.84L21.74 10.51L20.35 10.51L20.35 9.39L19.76 9.39L19.76 8.00L20.08 8.00L20.08 8.00Q20.06 7.16 20.06 6.66L20.06 6.66L20.06 6.66Q20.06 4.42 20.27 3.84L20.27 3.84L20.27 3.84Q20.48 3.17 20.93 2.69L20.93 2.69L20.93 2.69Q21.74 1.93 23.34 1.93ZM33.80 1.93L33.80 1.93L33.81 1.93L33.81 1.93Q36.00 1.93 36.50 3.36L36.50 3.36L36.50 3.36Q36.72 3.89 36.72 4.85L36.72 4.85L35.13 5.07L35.11 5.03L35.11 5.00L35.11 5.00Q35.11 3.84 34.33 3.62L34.33 3.62L34.33 3.62Q34.09 3.55 33.75 3.53L33.75 3.53L33.75 3.53Q32.90 3.53 32.66 4.44L32.66 4.44L32.66 4.44Q32.51 5.05 32.51 5.88L32.51 5.88L32.51 6.64L32.51 6.64Q32.51 7.98 32.55 8.65L32.55 8.65L32.95 8.65L32.95 10.02L34.90 10.02L34.90 7.68L33.67 7.68L33.67 6.43L37.37 6.43L37.37 6.71L36.89 6.71L36.89 8.16L35.90 8.16L35.90 8.61L36.38 8.61L36.38 11.39L31.08 11.39L31.08 9.91L30.48 9.91L30.48 9.78L30.74 9.78L30.74 9.63L31.08 9.63L31.08 9.08L30.15 9.08L30.15 7.90L30.59 7.90L30.59 7.90Q30.58 7.38 30.58 7.29L30.58 7.29L30.58 7.29Q30.58 4.18 30.92 3.53L30.92 3.53L30.92 3.53Q31.01 3.13 31.49 2.64L31.49 2.64L31.49 2.64Q32.18 1.93 33.80 1.93ZM32.69 8.52L32.69 8.09L32.79 8.09L32.79 8.52L32.69 8.52ZM36.67 8.67L36.67 8.67L36.67 8.67Q36.78 8.71 36.78 8.76L36.78 8.76L36.78 8.82L36.78 8.82Q36.78 8.85 36.72 8.89L36.72 8.89L36.72 8.89Q36.74 8.91 36.74 8.93L36.74 8.93L36.77 8.93L36.77 8.90L36.85 8.90L36.85 8.92L36.85 8.92Q36.85 9.00 36.82 9.00L36.82 9.00L36.82 9.00Q36.82 9.02 36.90 9.11L36.90 9.11L36.80 9.11L36.76 9.08L36.76 9.08Q36.69 9.13 36.63 9.13L36.63 9.13L36.63 9.13Q36.52 9.13 36.50 8.98L36.50 8.98L36.50 8.98Q36.52 8.91 36.57 8.89L36.57 8.89L36.57 8.89Q36.56 8.80 36.56 8.76L36.56 8.76L36.56 8.76Q36.56 8.71 36.67 8.67ZM36.64 8.79L36.64 8.79L36.64 8.79Q36.65 8.82 36.65 8.84L36.65 8.84L36.65 8.84Q36.68 8.84 36.70 8.79L36.70 8.79L36.70 8.79Q36.70 8.76 36.67 8.76L36.67 8.76L36.67 8.76Q36.64 8.76 36.64 8.79ZM36.70 9.00L36.63 8.93L36.59 8.98L36.59 9.00L36.59 9.00Q36.59 9.02 36.64 9.05L36.64 9.05L36.64 9.05Q36.70 9.02 36.70 9.00L36.70 9.00ZM36.67 9.37L36.67 9.37L36.67 9.37Q36.78 9.41 36.78 9.45L36.78 9.45L36.78 9.52L36.78 9.52Q36.78 9.54 36.72 9.58L36.72 9.58L36.72 9.58Q36.74 9.62 36.74 9.63L36.74 9.63L36.77 9.63L36.77 9.60L36.85 9.60L36.85 9.62L36.85 9.62Q36.85 9.70 36.82 9.70L36.82 9.70L36.82 9.70Q36.82 9.71 36.90 9.81L36.90 9.81L36.80 9.81L36.76 9.78L36.76 9.78Q36.69 9.83 36.63 9.83L36.63 9.83L36.63 9.83Q36.52 9.83 36.50 9.68L36.50 9.68L36.50 9.68Q36.52 9.62 36.57 9.58L36.57 9.58L36.57 9.58Q36.56 9.50 36.56 9.45L36.56 9.45L36.56 9.45Q36.56 9.41 36.67 9.37ZM36.64 9.49L36.64 9.49L36.64 9.49Q36.65 9.52 36.65 9.54L36.65 9.54L36.65 9.54Q36.68 9.54 36.70 9.49L36.70 9.49L36.70 9.49Q36.70 9.45 36.67 9.45L36.67 9.45L36.67 9.45Q36.64 9.46 36.64 9.49ZM33.26 9.49L33.26 9.49L33.26 9.49Q33.47 9.52 33.47 9.68L33.47 9.68L33.47 9.73L33.47 9.73Q33.46 9.94 33.26 9.94L33.26 9.94L33.24 9.94L33.24 9.94Q33.04 9.94 33.04 9.70L33.04 9.70L33.04 9.70Q33.10 9.49 33.26 9.49ZM33.63 9.57L33.63 9.50L33.99 9.50L33.99 9.60L33.88 9.60L33.88 9.91L33.88 9.91Q33.88 9.94 33.84 9.94L33.84 9.94L33.80 9.94L33.80 9.94Q33.76 9.94 33.76 9.91L33.76 9.91L33.76 9.60L33.67 9.60L33.67 9.60Q33.63 9.60 33.63 9.57L33.63 9.57ZM33.16 9.70L33.16 9.70L33.16 9.78L33.16 9.78Q33.16 9.80 33.23 9.84L33.23 9.84L33.30 9.84L33.30 9.84Q33.36 9.84 33.37 9.71L33.37 9.71L33.37 9.71Q33.37 9.63 33.29 9.58L33.29 9.58L33.28 9.58L33.28 9.58Q33.16 9.58 33.16 9.70ZM36.63 9.63L36.63 9.63L36.59 9.68L36.59 9.70L36.59 9.70Q36.59 9.72 36.64 9.75L36.64 9.75L36.64 9.75Q36.70 9.72 36.70 9.70L36.70 9.70L36.70 9.70Q36.63 9.63 36.63 9.63ZM36.65 10.07L36.65 10.07L36.65 10.07Q36.74 10.07 36.78 10.15L36.78 10.15L36.78 10.22L36.78 10.22Q36.78 10.25 36.72 10.28L36.72 10.28L36.72 10.28Q36.74 10.32 36.74 10.33L36.74 10.33L36.77 10.33L36.77 10.30L36.85 10.30L36.85 10.32L36.85 10.32Q36.85 10.40 36.82 10.40L36.82 10.40L36.82 10.40Q36.82 10.41 36.90 10.51L36.90 10.51L36.80 10.51L36.76 10.48L36.76 10.48Q36.69 10.53 36.63 10.53L36.63 10.53L36.63 10.53Q36.52 10.53 36.50 10.38L36.50 10.38L36.50 10.38Q36.52 10.32 36.57 10.28L36.57 10.28L36.56 10.17L36.56 10.15L36.56 10.15Q36.56 10.12 36.65 10.07ZM36.64 10.19L36.64 10.19L36.64 10.19Q36.65 10.22 36.65 10.23L36.65 10.23L36.65 10.23Q36.68 10.23 36.70 10.19L36.70 10.19L36.70 10.19Q36.70 10.15 36.67 10.15L36.67 10.15L36.67 10.15Q36.64 10.16 36.64 10.19ZM36.70 10.40L36.63 10.33L36.59 10.38L36.59 10.40L36.59 10.40Q36.59 10.42 36.64 10.45L36.64 10.45L36.64 10.45Q36.70 10.42 36.70 10.40L36.70 10.40ZM36.65 10.77L36.65 10.77L36.65 10.77Q36.74 10.77 36.78 10.86L36.78 10.86L36.78 10.92L36.78 10.92Q36.78 10.94 36.72 10.99L36.72 10.99L36.72 10.99Q36.74 11.01 36.74 11.03L36.74 11.03L36.77 11.03L36.77 11.00L36.85 11.00L36.85 11.01L36.82 11.13L36.82 11.13Q36.84 11.13 36.90 11.21L36.90 11.21L36.80 11.21L36.76 11.18L36.76 11.18Q36.69 11.22 36.63 11.22L36.63 11.22L36.63 11.22Q36.52 11.22 36.50 11.08L36.50 11.08L36.50 11.08Q36.52 11.01 36.57 10.99L36.57 10.99L36.56 10.87L36.56 10.86L36.56 10.86Q36.56 10.82 36.65 10.77ZM36.64 10.88L36.64 10.88L36.64 10.88Q36.65 10.92 36.65 10.93L36.65 10.93L36.65 10.93Q36.68 10.93 36.70 10.88L36.70 10.88L36.70 10.88Q36.70 10.86 36.67 10.86L36.67 10.86L36.67 10.86Q36.64 10.86 36.64 10.88ZM36.70 11.09L36.63 11.03L36.59 11.08L36.59 11.09L36.59 11.09Q36.59 11.12 36.64 11.14L36.64 11.14L36.64 11.14Q36.70 11.12 36.70 11.09L36.70 11.09ZM32.44 11.73L32.44 11.53L34.46 11.53L34.46 11.73L32.44 11.73ZM38.79 7.57L40.48 1.96L42.12 1.96L42.12 1.96Q42.16 2.10 43.72 7.29L43.72 7.29L44.02 7.29L44.02 10.51L43.35 10.51L43.35 10.76L44.02 10.76L44.02 11.45L42.21 11.45L42.21 9.47L39.98 9.47L39.98 10.32L39.07 10.32L39.07 11.73L37.43 11.73L37.43 11.63L37.56 11.63L37.56 10.32L38.23 10.32L38.23 7.57L38.79 7.57ZM41.28 4.71L41.25 4.71L41.25 4.72L41.25 4.72Q41.04 5.89 40.43 8.40L40.43 8.40L41.96 8.40L41.96 7.29L41.83 7.29L41.83 7.29Q41.28 4.92 41.28 4.71L41.28 4.71ZM36.95 7.57L36.95 7.28L38.23 7.28L38.23 7.57L36.95 7.57ZM42.21 11.73L42.21 11.57L44.40 11.57L44.40 11.73L42.21 11.73ZM44.27 9.38L44.27 1.98L46.44 1.98L46.44 1.98Q46.81 3.29 47.92 7.23L47.92 7.23L48.78 7.23L48.78 7.23Q48.82 7.23 49.06 6.30L49.06 6.30L49.06 6.30Q49.60 4.44 50.28 1.98L50.28 1.98L52.29 1.98L52.29 8.31L52.40 8.31L52.40 9.46L51.79 9.46L51.79 9.67L52.40 9.67L52.40 11.73L50.69 11.73L50.69 10.97L50.90 10.97L50.90 8.63L50.54 8.63L50.54 7.46L50.33 7.46L50.31 7.53L50.13 7.53L50.13 9.19L49.53 9.19L49.53 9.97L49.03 9.97L49.03 11.29L47.82 11.29L47.82 10.45L47.09 10.45L47.09 9.30L46.64 9.30L46.64 8.09L46.39 8.09L46.39 8.09Q46.38 8.00 46.22 7.46L46.22 7.46L47.95 7.46L47.91 7.23L46.18 7.23L46.22 7.46L46.00 7.46L46.00 8.98L46.11 8.98L46.11 10.64L45.68 10.64L45.68 10.94L46.11 10.94L46.11 11.38L44.56 11.38L44.56 9.38L44.27 9.38ZM46.00 6.54L45.98 6.54L45.98 6.66L45.98 6.66Q45.98 6.81 46.00 7.23L46.00 7.23L46.16 7.23L46.16 7.23Q46.00 6.58 46.00 6.54L46.00 6.54ZM50.56 6.56L50.54 6.56L50.39 7.23L50.54 7.23L50.54 7.23Q50.56 6.82 50.56 6.62L50.56 6.62L50.56 6.56ZM45.98 7.23L45.44 7.23L45.44 7.46L45.98 7.46L45.98 7.23ZM50.37 7.23L48.81 7.23L48.76 7.46L50.31 7.46L50.31 7.46Q50.37 7.29 50.37 7.23L50.37 7.23ZM51.74 7.23L50.56 7.23L50.56 7.46L51.74 7.46L51.74 7.23ZM48.73 7.46L47.99 7.46L47.99 7.46Q48.10 7.99 48.14 7.99L48.14 7.99L48.34 7.99L48.34 8.87L48.64 8.87L48.64 7.51L48.73 7.51L48.73 7.46ZM52.40 9.67L52.40 9.46L53.39 9.46L53.39 9.67L52.40 9.67ZM44.12 11.61L44.12 11.46L45.86 11.46L45.86 11.61L44.12 11.61ZM53.83 6.80L53.83 2.00L58.63 2.00L58.63 3.60L58.63 3.60Q58.63 3.63 58.59 3.63L58.59 3.63L55.75 3.63L55.75 5.74L58.30 5.74L58.30 5.76L58.30 5.76Q58.30 5.84 58.27 6.79L58.27 6.79L58.27 6.79Q58.25 6.79 58.25 6.80L58.25 6.80L58.37 6.80L58.37 7.29L56.16 7.29L56.16 9.29L55.56 9.29L55.56 9.49L56.16 9.49L56.16 10.10L58.66 10.10L58.66 10.32L58.46 10.32L58.46 11.52L55.47 11.52L55.47 11.73L54.04 11.73L54.04 8.24L53.83 8.24L53.83 7.01L52.27 7.01L52.27 6.80L53.83 6.80ZM54.65 6.80L53.85 6.80L53.85 7.01L54.65 7.01L54.65 6.80ZM59.40 7.49L59.40 1.96L62.75 1.96L62.75 1.96Q64.43 1.96 64.92 3.14L64.92 3.14L64.92 3.14Q65.13 3.75 65.13 4.53L65.13 4.53L65.13 4.94L65.13 4.94Q65.13 6.36 64.51 7.11L64.51 7.11L63.80 7.11L63.80 7.47L64.89 7.47L64.89 9.81L64.24 9.81L64.24 10.17L65.21 10.17L65.21 11.55L63.18 11.55L63.18 9.34L62.39 9.34L62.39 7.92L61.02 7.92L61.02 10.34L61.32 10.34L61.32 11.73L59.43 11.73L59.43 11.73Q59.40 11.73 59.40 11.70L59.40 11.70L59.40 7.77L60.24 7.77L60.24 7.49L59.40 7.49ZM62.13 3.55L61.32 3.55L61.32 6.31L61.78 6.31L61.78 6.31Q62.83 6.31 62.99 6.11L62.99 6.11L62.99 6.11Q63.16 6.00 63.26 5.67L63.26 5.67L63.98 5.67L63.98 5.32L63.33 5.32L63.33 5.35L63.33 5.35Q63.27 5.67 63.25 5.67L63.25 5.67L62.31 5.67L62.31 5.32L63.29 5.32L63.29 5.32Q63.33 5.32 63.33 5.29L63.33 5.29L63.33 5.29Q63.34 4.87 63.34 4.81L63.34 4.81L63.34 4.81Q63.34 3.90 63.03 3.69L63.03 3.69L63.03 3.69Q62.78 3.55 62.13 3.55L62.13 3.55Z"></path></g><!----><!----></svg>